<?xml version="1.0" encoding="UTF-8"?>
<!DOCTYPE svg PUBLIC "-//W3C//DTD SVG 1.1//EN" "http://www.w3.org/Graphics/SVG/1.1/DTD/svg11.dtd">
<!-- Creator: CorelDRAW 2020 (64-Bit) -->
<svg xmlns="http://www.w3.org/2000/svg" xml:space="preserve" width="100%" height="100%" version="1.1" style="shape-rendering:geometricPrecision; text-rendering:geometricPrecision; image-rendering:optimizeQuality; fill-rule:evenodd; clip-rule:evenodd"
viewBox="0 0 29700 21000"
 xmlns:xlink="http://www.w3.org/1999/xlink"
 xmlns:xodm="http://www.corel.com/coreldraw/odm/2003">
 <defs>
  <style type="text/css">
   <![CDATA[
    .fil4 {fill:black}
    .fil1 {fill:#8DAD0C}
    .fil0 {fill:#A2C125}
    .fil3 {fill:#D90D0D}
    .fil5 {fill:#E2FA82}
    .fil2 {fill:#FE0000}
    .fil6 {fill:black;fill-rule:nonzero}
   ]]>
  </style>
 </defs>
 <g id="Layer_x0020_1">
  <metadata id="CorelCorpID_0Corel-Layer"/>
  <g id="_2534144315152">
   <g>
    <path class="fil0" d="M14258.35 4828.17c-48.28,-133.16 54.67,-214.97 6.39,-348.14 827.15,-804.99 -28.07,-1966.77 114.97,-2839.85 114.25,-697.3 1175.7,-845.03 1046.6,230.66 -70.33,586.19 -399.71,1332.92 -247.47,1647.4 374.67,746.44 -507.45,1068.01 -920.49,1309.93z"/>
    <path class="fil1" d="M14258.32 4828.16c-48.24,-133.17 54.71,-214.97 6.41,-348.15 827.18,-804.97 -28.05,-1966.75 114.98,-2839.85 39.52,657.32 319.12,743.68 423.69,1680.54 11.28,101.12 57.6,230.34 -1.61,413.14 -85.42,161.14 -7.72,252.26 86.09,278.09 139.64,38.44 363.9,-107.54 290.97,-493.69 54.65,109.21 84.81,221.43 90.39,336.68 5.42,513.78 -666.09,771.3 -1010.92,973.24z"/>
    <path class="fil1" d="M16554.13 10951.05c60.78,82.82 121.52,165.63 182.3,248.45 137.48,-1345.68 818.56,-2777.87 506.87,-4014.53 -262.78,-1042.58 -971.24,-667.51 -1043.04,23.87 -44.75,430.9 202.61,831.52 -13.01,1213.22 -141.73,600.48 513.35,1264.12 366.88,2528.99z"/>
    <path class="fil0" d="M17258.8 8627.2c49.28,-393.88 145.93,-801.75 -15.5,-1442.22 -262.76,-1042.58 -971.23,-667.51 -1043.02,23.85 -29.59,284.82 68.41,556.39 76.03,818.03 303.97,967.73 575.32,1617.08 982.49,600.34z"/>
    <path class="fil2" d="M16625.42 12923.74c623.74,-137.96 632.01,-645.07 311.56,-1290.43 -394.06,747.46 -1553.38,-310.06 -1956.07,-1141.79 -255.17,-166.7 -815.27,30.99 -893.44,-228.65 -132.76,-377.66 278.32,-513.32 548.27,-435.15 720.64,223.62 1140.99,-312.2 477.94,-1009 -190.28,-280.27 -61.96,-595.95 -159.31,-761.18 -123.59,-127.95 -312.29,-26.79 -442.54,-247.81 -94.92,-146.07 89.23,-610.73 -110.63,-933.8 -98.86,-126.85 -242.46,-44.61 -314.74,-255.55 -54.44,-254.9 394.62,-361.36 505.23,-598.2 162.87,-348.76 169.08,-819.64 -9.07,-1434.19 -312.74,-106.22 -625.45,-212.41 -938.19,-318.63 -192.26,531.44 -368.72,996.69 -424.84,1398.44 165.23,241.92 467.61,404.18 495.65,725.77 -47.2,171.12 -268.47,267.81 -141.62,513.38 106.54,206.25 566.09,191.07 435.12,666.55 -170.29,236.73 -143.74,443.55 -60,589 70.73,122.92 279.39,190.49 250.17,422.38 -143.69,377.77 -514.36,431.77 -808.53,455.51 102.39,651.89 204.78,1303.75 307.17,1955.64 687.25,168.2 1174.28,1836.88 2927.87,1927.71z"/>
    <path class="fil3" d="M16625.43 12923.73c343.61,-76.01 500.37,-264.09 518.35,-525.56 -328.17,424.39 -953.67,304.2 -1433.08,-23.85 -601.1,-411.31 -1081.63,-1149.42 -1700.33,-1550.59 69.42,-1201.3 -378.76,-1535.97 -486.72,-1796.67 -45.43,5.69 -90.17,9.83 -133.26,13.3 102.38,651.93 204.79,1303.8 307.16,1955.68 687.25,168.17 1174.28,1836.88 2927.88,1927.69z"/>
    <path class="fil4" d="M14714.61 5367.57c-4.53,-229.08 -47.52,-488.16 -131.97,-779.56 -179.33,-178.11 -825.62,-474.19 -938.21,-318.63 -35.27,410.8 132.25,628.99 337.5,712.92 116.14,81.52 205.8,-239.78 463.28,-99.89 156.92,85.25 205.12,509.42 269.4,485.16z"/>
    <path class="fil2" d="M16279.37 9913.87c-47.21,82.61 -94.42,165.2 -141.63,247.81 -46.48,-673.94 -65.32,-1267.59 -247.97,-1947.16 466.05,-117.96 681.73,240.33 482.51,690.32 584.45,572.33 369.98,1017.91 -92.91,1009.03z"/>
    <path class="fil2" d="M16724.6 11250.11c-168.17,-295.02 -336.34,-590.07 -504.51,-885.09 210,-206.36 556.51,525.76 504.51,885.09z"/>
    <path class="fil0" d="M12385.63 2559.78c138.72,0 287.19,188.4 287.19,363.21 0,174.82 -148.47,269.84 -287.19,269.84 -138.71,0 -290.81,-81.25 -290.81,-256.06 0,-174.81 152.1,-376.99 290.81,-376.99z"/>
    <path class="fil0" d="M10396.93 5986.23c215.27,0 445.7,292.39 445.7,563.69 0,271.31 -230.43,418.78 -445.7,418.78 -215.28,0 -451.33,-126.1 -451.33,-397.4 0,-271.3 236.05,-585.07 451.33,-585.07z"/>
    <path class="fil0" d="M12523.47 13323.05c192.86,0 445.54,170.56 445.54,441.86 0,271.31 -230.43,418.77 -445.71,418.77 -215.27,0 -451.32,-126.09 -451.32,-397.39 0,-271.3 258.65,-463.24 451.49,-463.24z"/>
    <path class="fil0" d="M17845.38 10431.73c123.84,0 286.07,109.51 286.07,283.7 0,174.19 -147.95,268.88 -286.17,268.88 -138.22,0 -289.77,-80.96 -289.77,-255.15 0,-174.2 166.06,-297.43 289.87,-297.43z"/>
    <path class="fil1" d="M12669.4 2876.19c2.23,15.61 3.42,31.26 3.42,46.8 0,174.81 -148.46,269.85 -287.18,269.85 -138.74,0 -290.82,-81.26 -290.82,-256.07 0,-19.95 2,-40.26 5.71,-60.58 128.44,279.85 491.81,205.35 568.87,0z"/>
    <path class="fil1" d="M10837.32 6477.29c3.47,24.23 5.31,48.51 5.31,72.62 0,271.31 -230.41,418.8 -445.69,418.8 -215.32,0 -451.34,-126.11 -451.34,-397.41 0,-30.96 3.1,-62.48 8.87,-94.01 199.32,434.31 763.26,318.7 882.85,0z"/>
    <path class="fil1" d="M12963.69 13692.28c3.48,24.23 5.32,48.51 5.32,72.62 0,271.3 -230.41,418.8 -445.69,418.8 -215.32,0 -451.34,-126.11 -451.34,-397.41 0,-30.96 3.1,-62.48 8.87,-94.01 199.32,434.31 763.26,318.69 882.84,0z"/>
    <path class="fil1" d="M18128.04 10668.8c2.23,15.55 3.41,31.14 3.41,46.62 0,174.2 -147.93,268.9 -286.16,268.9 -138.25,0 -289.79,-80.97 -289.79,-255.16 0,-19.88 2,-40.12 5.69,-60.36 127.98,278.85 490.07,204.62 566.85,0z"/>
    <path class="fil0" d="M17046.47 4978.71c147.05,-67.41 183.47,-241.23 191.48,-484.1 6.26,-190.19 -108.36,-253.48 -203.42,-418.52 -50.07,-86.92 -25.91,-228.55 -108.14,-422.54 -179.28,-422.89 -732.5,-320.74 -570.3,289.59 73.76,274.38 472.75,365.11 464.67,624.03 -110.56,186.34 -39.58,459.55 225.71,411.54z"/>
    <path class="fil4" d="M13942.74 6230.89c-241.04,-187.71 -482.11,-375.39 -723.15,-563.09 -45.52,109.26 -131.35,273.45 -130.3,393.39 58.5,168.84 382.55,399.61 533.97,495.42 106.49,-108.57 213,-217.15 319.48,-325.72z"/>
    <path class="fil3" d="M12675.59 6450.25c-130.54,170.05 -248.05,360.08 -350.55,502.48 -12.32,330.36 3.6,747.96 83.66,1006.45 289.2,-739.05 449.17,-837.44 266.89,-1508.93z"/>
    <path class="fil4" d="M15312.18 9125.95c-88.8,44.46 -9.03,323.03 133.13,341.83 371.08,-100.06 703.67,105.23 782.19,59.07 151.4,-156.74 -70.13,-452.33 -346.45,-438.83 -177.17,3.86 -330.21,-21.09 -568.87,37.93z"/>
    <path class="fil4" d="M15194.13 8802.6c-88.8,44.46 5.08,297.63 147.24,316.44 460.88,-300.24 653.63,-43.87 732.16,-90.04 64.9,-69.29 -35.6,-155.32 -58.79,-223.84 -44.25,-130.72 -106.36,-223.85 -287.66,-214.99 -177.17,3.87 -294.29,153.42 -532.95,212.43z"/>
    <path class="fil4" d="M15863.28 8677.39c-135.15,22.23 -270.31,44.47 -405.46,66.71 -145.9,-49.63 -286.83,-77.47 -432.73,-127.11 -51.83,-109.62 16.84,-532.61 -124.26,-600.24 97.54,-41.06 115.34,-54.16 64.28,-109.23 -144.21,-186.46 -453.01,-100.03 -626.03,-118.92 -409.25,-44.66 -287.52,-408.09 7.76,-393.39 129.24,6.42 263.5,35.94 373.45,73.87 294.43,101.55 640.48,265.83 809.4,446.13 269.53,-21.83 319.86,150.98 246.33,305.39 -211.84,-18.36 -412.63,2.9 -590.22,107.78 255.99,71.06 476.24,195.78 677.48,349.01z"/>
    <path class="fil4" d="M15083.41 7274.91c195.03,13.69 420.84,-44.49 615.88,-30.8 441.7,100.62 834.03,-74.59 623.59,-646.67 315.77,-412.09 181.27,-886.4 -33.37,-944.36 -130.01,30.66 -4.14,240.71 -87.6,450.45 -32.94,82.81 -170.93,89.82 -210.57,205.13 -19.67,61.59 75.36,119.39 56.97,216.91 -61.59,153.98 -77,431.12 -184.78,461.92 -234.01,81.57 -1036.3,-108.04 -1387.99,-44.01 -317.17,57.72 -355.69,445.61 39.41,431.31 140.92,-5.11 335.15,-114.2 568.46,-99.88z"/>
    <path class="fil4" d="M14297.71 6299.5c87.38,-60.26 188.19,-133.68 260.18,-221.25 300.67,244.43 526.82,677.17 795.44,908.39 509.1,438.24 742.31,938.46 452.01,1133.77 111.31,-364 -556.51,-654.33 -792.29,-1084.27 -153.12,-228.38 -557.08,-505.68 -715.34,-736.64z"/>
    <path class="fil2" d="M16109 14049.42c825.64,-82.27 1228.95,-438.19 1082.85,-1150.03 -1196.57,1347.18 -2968.8,-573.86 -3504.04,-1169.22 -10.28,177.92 -73.16,386.05 -83.43,563.97 834.87,585.09 1669.75,1170.19 2504.62,1755.28z"/>
    <path class="fil3" d="M16109 14049.42c825.65,-82.27 1228.95,-438.19 1082.85,-1150.03 -643.97,1144.95 -1818.09,890.05 -3537.86,-929.09 -20.62,110.29 -43.73,222.01 -49.61,323.84 834.87,585.08 1669.75,1170.2 2504.62,1755.28z"/>
    <path class="fil0" d="M13744.49 13218.04c2070.21,2786.7 3979.42,1087.7 3447.34,-318.66 -466.18,997.36 -1535.64,1122.79 -2058.48,179.12 -412.61,-744.67 -484.28,-460.04 -1109.46,-687.08 -316.68,-115 -425.89,-553.14 -261.76,-1032.12 148.98,-467.64 147.51,-1050.29 44.24,-1424.99 -147.51,-389.43 -392.92,-527.47 -415.99,-893.92 -23.6,-374.93 184.42,-946.53 256.91,-1442.99 107.45,-735.79 -726.12,-1016.17 -939.55,-165.01 -73.06,291.35 13.63,914.23 74.59,1404.61 90.48,727.87 -406.33,761.45 -546.08,62.38 -105.36,-526.93 -75.52,-1488.81 47.75,-1938.96 223.94,-817.79 990.69,-2285.46 424.84,-2690.66 -402.79,-193.73 -774.91,461.05 -920.47,-566.46 -50.58,-728.06 314.77,-1617.38 378.92,-2203.62 96.37,-880.33 -796.64,-892.1 -1071.65,-185.19 -243.32,625.45 -393.98,1589.09 232.54,3627.9 719.91,2215.69 -410.1,3634.76 44.26,5195.47 153.4,632.84 776.73,827.91 1070.95,1203.75 444.33,567.59 413.82,1545.33 1301.1,1876.43z"/>
    <path class="fil1" d="M13744.5 13218.04c1738.98,2340.85 3364.09,1516.47 3524.31,359.21 -441.85,1058.99 -1554.51,1007.13 -2517.05,278.88 -415.2,-314.13 -295.44,-682.83 -618.33,-917.3 -278.98,-202.58 -814.8,-323.31 -919.45,-964.31 0,-448.51 50.45,-975.5 -168.2,-1311.89 -326.09,-486.9 -753.1,-502.86 -961.46,-911.28 -247.63,-428.81 -304.64,-1037.03 -238.31,-1634.03 -14.95,-2119.22 609.23,-2747.14 482.15,-3061.1 -124.9,-543.12 -796.47,-358.48 -1113.46,-1368.64 -170.29,-542.66 -223.69,-1350.86 2.98,-2594.89 -47.62,63.6 -89.25,137.52 -122.04,221.8 -243.31,625.46 -393.98,1589.09 232.53,3627.91 719.93,2215.67 -410.09,3634.75 44.27,5195.47 153.4,632.83 776.73,827.89 1070.94,1203.73 444.35,567.6 413.83,1545.34 1301.12,1876.44z"/>
    <path class="fil4" d="M15713.22 8184.66c27.53,-51.11 55.04,-102.23 82.56,-153.35 167.96,182.08 219.02,539.46 279.77,882.38 -74.05,-50.52 -148.12,-101.04 -222.17,-151.56 -13.75,-208.31 -32.22,-414.36 -140.16,-577.47z"/>
    <path class="fil5" d="M11970.05 979.02c140.57,133.89 117.39,408.52 63.85,464.75 -53.55,56.23 -33.5,-227.67 -174.07,-361.55 -140.58,-133.89 -388.56,-67.05 -335.02,-123.28 53.55,-56.23 304.66,-113.8 445.24,20.08z"/>
    <path class="fil5" d="M15154.08 1191.31c164.77,102.66 197.67,376.3 156.61,442.2 -41.05,65.91 -78.89,-216.17 -243.66,-318.82 -164.77,-102.66 -394.08,13 -353.03,-52.91 41.06,-65.9 275.31,-173.12 440.08,-70.47z"/>
    <path class="fil5" d="M16513.1 3474.64c85.22,-41.84 207.3,15.26 224.04,49.34 16.74,34.09 -110.12,-23.15 -195.34,18.69 -85.22,41.84 -96.51,166.93 -113.25,132.85 -16.74,-34.08 -0.66,-159.04 84.55,-200.88z"/>
    <path class="fil5" d="M12715.12 4409.13c122.88,117.03 102.62,357.07 55.81,406.22 -46.8,49.15 -29.27,-198.99 -152.15,-316.02 -122.87,-117.02 -339.62,-58.6 -292.82,-107.75 46.8,-49.15 266.29,-99.47 389.16,17.55z"/>
    <path class="fil5" d="M12373.18 2581.42c66.4,-4.88 130.85,64.27 132.8,90.83 1.96,26.55 -65.56,-43.93 -131.97,-39.05 -66.4,4.88 -106.53,83.3 -108.49,56.74 -1.95,-26.56 41.26,-103.63 107.66,-108.52z"/>
    <path class="fil5" d="M10377.6 6019.82c103.05,-7.58 203.07,99.74 206.11,140.95 3.03,41.22 -101.76,-68.17 -204.82,-60.59 -103.05,7.58 -165.34,129.27 -168.37,88.05 -3.03,-41.22 64.02,-160.83 167.08,-168.41z"/>
    <path class="fil5" d="M12500.46 13370.45c157,-8.26 249.8,100.05 253.83,141.27 4.03,41.21 -110.87,-60.27 -247.63,-52.69 -136.75,7.58 -243.59,121.35 -247.62,80.14 -4.03,-41.22 84.41,-160.47 241.42,-168.72z"/>
    <path class="fil5" d="M17830.61 10462.16c100.81,-5.3 160.39,64.24 162.98,90.7 2.58,26.47 -71.19,-38.69 -159,-33.82 -87.8,4.86 -156.4,77.91 -158.98,51.45 -2.59,-26.47 54.19,-103.03 155,-108.33z"/>
    <path class="fil5" d="M13320.52 7040.01c177.23,72.05 255.08,332.26 226.27,403.15 -28.81,70.88 -112.88,-196.69 -290.11,-268.74 -177.23,-72.04 -380.52,78.74 -351.7,7.85 28.81,-70.89 238.31,-214.3 415.54,-142.26z"/>
    <path class="fil5" d="M16828.89 6640.1c160.53,65.26 231.05,300.96 204.95,365.17 -26.09,64.21 -102.24,-178.16 -262.77,-243.42 -160.54,-65.26 -344.67,71.32 -318.57,7.11 26.09,-64.21 215.85,-194.11 376.39,-128.86z"/>
   </g>
   <g>
    <path class="fil6" d="M11522.27 17885.56c-114.65,0 -218.62,-18.55 -311.91,-55.64 -93.29,-37.09 -173.1,-101.16 -239.41,-192.21 -66.32,-91.04 -117.46,-214.68 -153.43,-370.91 -35.97,-156.24 -53.95,-354.63 -53.95,-595.16 0,-218.06 15.74,-405.2 47.21,-561.44 31.47,-156.23 79.24,-284.37 143.31,-384.4 64.07,-100.04 144.99,-173.66 242.78,-220.87 97.79,-47.21 213,-70.81 345.63,-70.81 130.38,0 241.66,25.29 333.83,75.87 92.16,50.58 167.47,119.7 225.92,207.38 58.45,87.67 99.47,191.08 123.08,310.22 23.6,119.14 32.03,247.28 25.29,384.41 -96.67,-2.25 -185.46,-3.38 -266.39,-3.38 -71.94,0 -141.06,0 -207.38,0 -66.31,0 -114.08,-1.12 -143.31,-3.37 2.25,-179.84 -5.62,-303.48 -23.6,-370.92 -17.98,-67.44 -44.96,-101.16 -80.93,-101.16 -22.48,0 -41.02,10.12 -55.64,30.35 -14.61,20.23 -26.41,57.89 -35.4,112.96 -8.99,55.08 -15.18,130.95 -18.55,227.61 -3.37,96.67 -5.06,221.43 -5.06,374.29 0,159.61 2.81,288.31 8.43,386.1 5.62,97.78 14.05,174.22 25.29,229.29 11.24,55.08 25.29,92.17 42.15,111.28 16.86,19.11 37.66,28.66 62.39,28.66 35.96,0 62.38,-26.41 79.24,-79.24 16.86,-52.83 24.16,-148.93 21.92,-288.31 -13.49,2.25 -26.98,3.37 -40.47,3.37 -11.24,2.25 -25.85,3.38 -43.83,3.38 -17.99,0 -37.1,1.12 -57.33,3.37l0 -131.51c0,-42.71 0,-94.98 0,-156.8 0,-61.82 -1.12,-132.07 -3.37,-210.75 92.17,2.25 183.21,3.38 273.13,3.38l495.68 0c9,272 -2.81,492.87 -35.4,662.59 -32.6,169.73 -81.49,302.36 -146.68,397.9 -65.2,95.54 -146.69,160.17 -244.47,193.89 -97.79,33.72 -207.38,50.58 -328.77,50.58z"/>
    <path id="1" class="fil6" d="M12992.46 16644.66c65.19,-2.24 116.33,-29.22 153.43,-80.92 37.09,-51.71 55.63,-138.26 55.63,-259.65 0,-119.14 -17.42,-212.99 -52.26,-281.56 -34.85,-68.56 -90.48,-99.47 -166.92,-92.73 0,89.92 0.57,177.03 1.69,261.33 1.12,84.3 2.81,160.17 5.06,227.61 2.25,78.68 3.37,153.99 3.37,225.92zm266.39 1254.38l-57.33 -229.29c-17.98,-74.19 -40.46,-163.54 -67.44,-268.07 -26.97,-104.54 -58.44,-221.99 -94.41,-352.38 -2.25,2.25 -6.75,3.37 -13.49,3.37l-33.72 0 13.49 724.98 -175.35 0c-56.2,0 -122.51,0 -198.94,0 -76.43,0 -159.61,1.13 -249.53,3.37 2.25,-179.84 4.5,-387.77 6.74,-623.81 2.25,-202.32 3.94,-445.11 5.06,-728.35 1.13,-283.25 1.69,-603.59 1.69,-961.02 101.16,-17.98 196.7,-32.03 286.62,-42.15 89.92,-10.12 174.22,-15.17 252.9,-15.17 312.47,0 541.2,71.37 686.2,214.12 144.99,142.74 217.49,354.62 217.49,635.62 0,148.36 -25.29,272 -75.87,370.92 -50.58,98.91 -119.71,179.84 -207.38,242.78 13.49,44.96 47.21,148.93 101.16,311.91 53.95,162.98 132.63,387.21 236.04,672.71 -47.21,2.25 -102.28,5.62 -165.23,10.12 -53.95,4.49 -120.26,9.55 -198.94,15.17 -78.68,5.62 -168.6,10.68 -269.76,15.17z"/>
    <path id="2" class="fil6" d="M13953.48 17814.74c-2.25,-195.57 -4.5,-414.75 -6.75,-657.53 -2.25,-209.07 -5.06,-455.22 -8.43,-738.47 -3.37,-283.25 -7.3,-595.72 -11.8,-937.41 62.94,0 145,-1.13 246.16,-3.37 85.42,0 197.82,-0.57 337.19,-1.69 139.38,-1.12 311.35,-2.81 515.92,-5.06l0 168.6c0,51.7 0,114.09 0,187.15 0,73.06 2.25,153.42 6.74,241.09 -62.94,2.25 -124.76,3.38 -185.46,3.38 -51.7,2.24 -106.21,3.37 -163.54,3.37 -57.32,0 -108.46,1.12 -153.42,3.37 -2.25,44.96 -2.81,85.99 -1.69,123.08 1.12,37.09 1.69,70.25 1.69,99.47l0 91.04c13.48,0 52.82,0.57 118.02,1.69 65.19,1.12 165.22,-0.56 300.1,-5.06l0 161.86c0,51.7 0,111.84 0,180.4 0,68.56 1.13,144.43 3.37,227.61l-118.01 0c-38.22,0 -82.06,-0.56 -131.51,-1.69 -49.46,-1.12 -102.29,-1.68 -158.49,-1.68l0 80.92c0,53.96 3.38,125.89 10.12,215.81 35.97,2.25 78.68,4.5 128.14,6.75 40.46,2.24 89.92,5.05 148.36,8.43 58.45,3.37 123.64,6.18 195.58,8.43 -2.25,38.21 -3.37,85.42 -3.37,141.62 -2.25,47.21 -3.38,105.65 -3.38,175.34 0,69.69 0,151.74 0,246.16 -98.91,-2.25 -205.69,-5.62 -320.33,-10.12 -98.92,-2.25 -212.44,-4.49 -340.58,-6.74 -128.13,-2.25 -263.01,-4.5 -404.63,-6.75z"/>
    <path id="3" class="fil6" d="M15828.3 15970.27c-11.24,92.16 -25.85,226.48 -43.84,402.95 -17.98,176.47 -37.09,387.22 -57.32,632.25 26.98,2.24 52.83,2.81 77.56,1.68 24.72,-1.12 46.08,-1.68 64.06,-1.68l64.07 0c-13.49,-141.63 -26.41,-275.38 -38.78,-401.27 -12.36,-125.89 -24.16,-236.04 -35.4,-330.46 -11.24,-110.15 -21.36,-211.31 -30.35,-303.47zm-762.07 1804.01c29.22,-179.84 61.82,-387.78 97.79,-623.82 31.47,-200.07 67.44,-441.17 107.9,-723.29 40.47,-282.12 84.3,-600.78 131.51,-955.96 121.39,-4.49 234.35,-7.87 338.88,-10.11 104.54,-2.25 196.14,-3.38 274.82,-3.38l249.53 0c29.22,224.8 64.07,467.59 104.53,728.35 33.72,224.8 73.62,482.2 119.71,772.19 46.08,289.99 97.22,595.72 153.42,917.18 -51.7,-2.25 -110.15,-3.37 -175.34,-3.37 -56.2,0 -123.64,0.56 -202.32,1.68 -78.68,1.13 -167.48,2.81 -266.39,5.06 -2.25,-22.48 -4.49,-51.7 -6.74,-87.67 -2.25,-31.47 -5.06,-70.81 -8.43,-118.02 -3.37,-47.21 -7.31,-104.53 -11.8,-171.97 -31.48,-2.25 -71.94,-3.37 -121.4,-3.37 -49.45,0 -103.4,0 -161.85,0l-20.23 283.24c-38.22,0 -86.55,-1.12 -145,-3.37 -49.46,-2.25 -111.84,-3.37 -187.14,-3.37 -75.31,0 -165.79,0 -271.45,0z"/>
    <path id="4" class="fil6" d="M17392.9 17868.7c-146.12,0 -267.51,-19.67 -364.17,-59.01 -96.67,-39.34 -173.66,-96.67 -230.98,-171.98 -57.33,-75.3 -96.11,-168.03 -116.34,-278.18 -20.23,-110.16 -25.85,-234.92 -16.86,-374.3 49.46,2.25 106.78,3.38 171.97,3.38 53.96,2.24 119.71,3.37 197.26,3.37 77.56,0 163.55,0 257.96,0 -11.24,134.88 -8.99,234.35 6.75,298.42 15.73,64.07 46.08,96.1 91.04,96.1 31.47,0 54.51,-13.49 69.13,-40.46 14.61,-26.98 21.91,-76.43 21.91,-148.37 0,-62.94 -19.1,-119.71 -57.32,-170.29 -38.22,-50.58 -115.77,-105.09 -232.67,-163.54 -98.91,-49.45 -181.52,-101.16 -247.84,-155.11 -66.31,-53.95 -119.7,-112.4 -160.17,-175.34 -40.46,-62.95 -69.12,-131.51 -85.98,-205.69 -16.86,-74.19 -25.29,-157.36 -25.29,-249.53 0,-116.9 18.54,-216.93 55.63,-300.11 37.1,-83.17 88.24,-150.05 153.43,-200.63 65.19,-50.58 142.75,-87.67 232.67,-111.28 89.92,-23.6 187.7,-35.4 293.36,-35.4 260.77,0 446.23,75.87 556.38,227.61 110.15,151.74 150.61,373.73 121.39,665.96 -60.7,-4.49 -124.76,-8.99 -192.2,-13.48 -58.45,-4.5 -124.21,-8.43 -197.27,-11.81 -73.05,-3.37 -146.68,-6.18 -220.86,-8.43 17.98,-143.87 17.42,-243.34 -1.69,-298.42 -19.1,-55.07 -44.39,-82.61 -75.87,-82.61 -58.44,0 -87.67,65.19 -87.67,195.58 0,65.19 17.42,125.32 52.27,180.4 34.84,55.07 94.98,101.72 180.4,139.93 114.65,51.71 209.06,102.85 283.25,153.43 74.18,50.58 133.19,105.66 177.03,165.23 43.83,59.57 74.18,125.32 91.04,197.26 16.86,71.93 25.29,155.11 25.29,249.53 0,121.39 -17.42,224.8 -52.27,310.22 -34.84,85.42 -84.3,155.11 -148.36,209.06 -64.07,53.95 -140.5,93.86 -229.3,119.71 -88.79,25.85 -187.14,38.78 -295.05,38.78z"/>
    <path id="5" class="fil6" d="M18654.03 17875.44c2.24,-17.98 3.37,-47.21 3.37,-87.67 0,-35.97 -0.56,-87.11 -1.69,-153.43 -1.12,-66.31 -3.93,-154.55 -8.43,-264.7 -24.73,-101.16 -59.57,-236.04 -104.53,-404.64 -38.22,-143.87 -90.48,-331.01 -156.8,-561.43 -66.31,-230.42 -150.05,-515.36 -251.21,-854.8 24.73,2.24 66.32,2.24 124.76,0 49.46,-2.25 116.9,-4.5 202.32,-6.75 85.43,-2.25 197.83,-6.74 337.2,-13.49 8.99,67.44 20.23,149.5 33.72,246.16 11.24,83.18 27.54,187.71 48.9,313.6 21.35,125.88 47.77,276.5 79.24,451.84 15.73,-105.65 33.72,-218.05 53.95,-337.2 15.74,-101.16 33.72,-215.8 53.95,-343.94 20.23,-128.14 39.34,-260.77 57.33,-397.89 35.96,2.24 83.17,4.49 141.62,6.74 49.45,2.25 114.08,3.93 193.89,5.06 79.8,1.12 177.03,0.56 291.68,-1.69 -42.72,150.62 -89.92,321.46 -141.63,512.54 -44.96,164.11 -97.22,361.93 -156.8,593.47 -59.57,231.55 -125.32,491.19 -197.26,778.93l0 80.93c0,35.97 0.56,87.67 1.69,155.11 1.12,67.44 3.93,160.73 8.43,279.88 -26.98,-2.25 -67.44,-3.37 -121.39,-3.37 -44.96,0 -107.34,0 -187.15,0 -79.8,0 -181.52,2.24 -305.16,6.74z"/>
    <path class="fil6" d="M12865.52 20186.86c-128.89,0 -235.96,-17.35 -321.22,-52.05 -85.27,-34.7 -153.18,-85.27 -203.74,-151.69 -50.56,-66.43 -84.77,-148.22 -102.61,-245.38 -17.85,-97.16 -22.81,-207.2 -14.87,-330.14 43.62,1.98 94.18,2.97 151.68,2.97 47.59,1.99 105.59,2.98 174,2.98 68.4,0 144.25,0 227.53,0 -9.92,118.97 -7.93,206.71 5.95,263.22 13.88,56.51 40.64,84.77 80.3,84.77 27.76,0 48.09,-11.9 60.97,-35.69 12.89,-23.8 19.34,-67.42 19.34,-130.87 0,-55.52 -16.86,-105.59 -50.57,-150.2 -33.7,-44.62 -102.11,-92.7 -205.22,-144.25 -87.24,-43.63 -160.11,-89.23 -218.61,-136.82 -58.49,-47.59 -105.58,-99.14 -141.28,-154.66 -35.69,-55.52 -60.97,-116 -75.84,-181.43 -14.87,-65.44 -22.31,-138.8 -22.31,-220.1 0,-103.1 16.36,-191.34 49.08,-264.71 32.72,-73.36 77.83,-132.35 135.33,-176.96 57.5,-44.62 125.91,-77.33 205.22,-98.15 79.32,-20.82 165.57,-31.23 258.76,-31.23 230.01,0 393.6,66.92 490.76,200.76 97.15,133.84 132.85,329.65 107.07,587.41 -53.54,-3.96 -110.05,-7.93 -169.53,-11.89 -51.56,-3.97 -109.56,-7.44 -174,-10.41 -64.44,-2.98 -129.38,-5.46 -194.81,-7.44 15.86,-126.9 15.36,-214.64 -1.49,-263.22 -16.85,-48.58 -39.16,-72.87 -66.92,-72.87 -51.55,0 -77.33,57.5 -77.33,172.51 0,57.5 15.37,110.54 46.1,159.12 30.73,48.58 83.78,89.72 159.12,123.43 101.13,45.61 184.41,90.72 249.84,135.33 65.43,44.61 117.48,93.19 156.15,145.74 38.66,52.54 65.43,110.54 80.3,173.99 14.88,63.45 22.31,136.82 22.31,220.1 0,107.07 -15.37,198.28 -46.1,273.63 -30.73,75.35 -74.36,136.82 -130.87,184.41 -56.51,47.58 -123.92,82.78 -202.25,105.58 -78.32,22.8 -165.07,34.21 -260.24,34.21z"/>
    <path id="1" class="fil6" d="M14230.7 19797.23c13.88,0 26.27,-6.94 37.18,-20.82 10.9,-13.88 19.82,-43.62 26.76,-89.23 6.94,-45.61 11.9,-113.02 14.88,-202.25 2.97,-89.23 4.46,-210.18 4.46,-362.86 0,-144.75 -1.49,-260.74 -4.46,-347.99 -2.98,-87.24 -7.94,-153.67 -14.88,-199.27 -6.94,-45.61 -16.35,-75.85 -28.25,-90.72 -11.9,-14.87 -25.78,-22.31 -41.64,-22.31 -19.83,0 -35.69,8.43 -47.59,25.29 -11.9,16.85 -20.82,50.06 -26.77,99.63 -5.95,49.57 -9.91,118.97 -11.89,208.2 -1.99,89.23 -2.98,205.23 -2.98,347.99 0,144.75 1.98,260.25 5.95,346.5 3.97,86.25 9.42,152.18 16.36,197.79 6.94,45.61 16.36,75.35 28.25,89.23 11.9,13.88 26.77,20.82 44.62,20.82zm-5.95 407.47c-122.94,0 -227.04,-22.8 -312.3,-68.41 -85.26,-45.6 -154.66,-113.02 -208.2,-202.25 -53.53,-89.22 -92.69,-199.27 -117.48,-330.14 -24.78,-130.87 -37.18,-282.55 -37.18,-455.06 0,-164.58 9.92,-314.78 29.75,-450.6 19.82,-135.83 55.02,-252.81 105.58,-350.96 50.56,-98.15 118.97,-174.49 205.23,-229.02 86.25,-54.53 196.79,-81.79 331.63,-81.79 136.81,0 249.34,25.28 337.57,75.84 88.24,50.56 157.64,123.43 208.2,218.61 50.56,95.17 85.26,211.17 104.1,347.99 18.84,136.81 28.26,292.46 28.26,466.95 -1.99,194.32 -16.86,358.9 -44.62,493.73 -27.76,134.83 -68.9,243.89 -123.43,327.17 -54.53,83.28 -123.93,143.76 -208.2,181.43 -84.27,37.67 -183.91,56.51 -298.91,56.51z"/>
    <path id="2" class="fil6" d="M15006.98 20136.29c0,-164.57 -0.99,-351.95 -2.97,-562.13 -1.99,-180.44 -3.97,-394.59 -5.95,-642.44 -1.98,-247.86 -4.96,-525.45 -8.92,-832.8 37.67,1.99 82.28,2.98 133.84,2.98 45.6,0 101.12,0 166.56,0 65.43,0 143.75,-0.99 234.96,-2.98 -1.98,67.42 -2.97,169.54 -2.97,306.35 0,116.99 0.99,275.12 2.97,474.4 1.98,199.27 5.95,455.56 11.9,768.84 59.48,3.97 115.5,6.45 168.04,7.44 52.55,0.99 98.65,1.49 138.31,1.49l127.89 0c-1.98,75.35 -2.97,142.76 -2.97,202.25 0,59.48 0,111.04 0,154.66l0 133.84c-29.75,0 -66.92,-0.5 -111.54,-1.49 -44.61,-0.99 -92.2,-1.98 -142.76,-2.97 -50.56,-0.99 -103.11,-1.98 -157.64,-2.98 -54.53,-0.99 -107.57,-1.48 -159.12,-1.48 -122.94,-1.99 -252.81,-2.98 -389.63,-2.98z"/>
    <path id="3" class="fil6" d="M16053.92 20139.27c-1.98,-172.51 -3.97,-365.84 -5.95,-579.98 -1.98,-184.41 -4.46,-401.53 -7.43,-651.37 -2.98,-249.83 -6.45,-525.45 -10.41,-826.84 55.51,0 127.89,-0.99 217.12,-2.97 75.34,0 174.49,-0.5 297.42,-1.49 122.94,-0.99 274.63,-2.48 455.06,-4.46l0 148.71c0,45.6 0,100.63 0,165.07 0,64.44 1.99,135.33 5.95,212.66 -55.52,1.98 -110.05,2.97 -163.58,2.97 -45.61,1.99 -93.69,2.98 -144.25,2.98 -50.57,0 -95.68,0.99 -135.33,2.97 -1.99,39.66 -2.48,75.85 -1.49,108.56 0.99,32.72 1.49,61.97 1.49,87.74l0 80.31c11.89,0 46.59,0.5 104.1,1.49 57.5,0.99 145.74,-0.5 264.71,-4.46l0 142.76c0,45.61 0,98.65 0,159.12 0,60.48 0.99,127.4 2.97,200.77l-104.1 0c-33.71,0 -72.37,-0.5 -116,-1.49 -43.62,-0.99 -90.21,-1.49 -139.79,-1.49l0 71.38c0,47.59 2.98,111.04 8.93,190.36 31.72,1.98 69.4,3.96 113.02,5.94 35.69,1.99 79.31,4.47 130.87,7.44 51.55,2.97 109.05,5.45 172.5,7.44 -1.98,33.7 -2.97,75.34 -2.97,124.91 -1.98,41.64 -2.97,93.2 -2.97,154.67 0,61.46 0,133.84 0,217.12 -87.25,-1.99 -181.43,-4.96 -282.56,-8.93 -87.24,-1.98 -187.38,-3.96 -300.4,-5.94 -113.02,-1.99 -231.99,-3.97 -356.91,-5.95z"/>
    <path id="4" class="fil6" d="M17695.72 20186.86c-128.89,0 -235.96,-17.35 -321.22,-52.05 -85.27,-34.7 -153.18,-85.27 -203.74,-151.69 -50.56,-66.43 -84.77,-148.22 -102.61,-245.38 -17.85,-97.16 -22.81,-207.2 -14.87,-330.14 43.62,1.98 94.18,2.97 151.68,2.97 47.59,1.99 105.59,2.98 174,2.98 68.4,0 144.25,0 227.53,0 -9.92,118.97 -7.93,206.71 5.95,263.22 13.88,56.51 40.64,84.77 80.3,84.77 27.76,0 48.09,-11.9 60.97,-35.69 12.89,-23.8 19.34,-67.42 19.34,-130.87 0,-55.52 -16.86,-105.59 -50.57,-150.2 -33.7,-44.62 -102.11,-92.7 -205.22,-144.25 -87.24,-43.63 -160.11,-89.23 -218.61,-136.82 -58.49,-47.59 -105.58,-99.14 -141.28,-154.66 -35.69,-55.52 -60.97,-116 -75.84,-181.43 -14.87,-65.44 -22.31,-138.8 -22.31,-220.1 0,-103.1 16.36,-191.34 49.08,-264.71 32.72,-73.36 77.83,-132.35 135.33,-176.96 57.5,-44.62 125.91,-77.33 205.22,-98.15 79.32,-20.82 165.57,-31.23 258.76,-31.23 230.01,0 393.6,66.92 490.76,200.76 97.15,133.84 132.85,329.65 107.07,587.41 -53.54,-3.96 -110.05,-7.93 -169.53,-11.89 -51.56,-3.97 -109.56,-7.44 -174,-10.41 -64.44,-2.98 -129.38,-5.46 -194.81,-7.44 15.86,-126.9 15.36,-214.64 -1.49,-263.22 -16.85,-48.58 -39.16,-72.87 -66.92,-72.87 -51.55,0 -77.33,57.5 -77.33,172.51 0,57.5 15.37,110.54 46.1,159.12 30.73,48.58 83.78,89.72 159.12,123.43 101.13,45.61 184.41,90.72 249.84,135.33 65.43,44.61 117.48,93.19 156.15,145.74 38.66,52.54 65.43,110.54 80.3,173.99 14.88,63.45 22.31,136.82 22.31,220.1 0,107.07 -15.37,198.28 -46.1,273.63 -30.73,75.35 -74.36,136.82 -130.87,184.41 -56.51,47.58 -123.92,82.78 -202.25,105.58 -78.32,22.8 -165.07,34.21 -260.24,34.21z"/>
   </g>
  </g>
 </g>
</svg>
